<svg xmlns="http://www.w3.org/2000/svg" xmlns:xlink="http://www.w3.org/1999/xlink" xmlns:sketch="http://www.bohemiancoding.com/sketch/ns" width="150" height="60" version="1.1"><rect id="backgroundrect" width="100%" height="100%" x="0" y="0" fill="none" stroke="none"/>
    <!-- Generator: Sketch 3.3.3 (12081) - http://www.bohemiancoding.com/sketch -->
    <title>logo3</title>
    <desc>Created with Sketch.</desc>
    <defs/>
    
<g class="currentLayer"><title>Layer 1</title><g id="Page-1" stroke="none" stroke-width="1" fill="#dadada" fill-rule="evenodd" sketch:type="MSPage" class="selected" fill-opacity="1">
        <g id="logo3" sketch:type="MSArtboardGroup" fill="#dadada" fill-opacity="1">
            <g id="Shape-+-Shape" sketch:type="MSLayerGroup" fill="#dadada" fill-opacity="1">
                <path d="M112.810221,55.0851456 L112.810221,56.5791505 L106.6928094,56.5791505 L106.6928094,47.8154079 L112.6984629,47.8154079 L112.6984629,49.3087545 L108.4054961,49.3087545 L108.4054961,51.4195014 L112.1154347,51.4195014 L112.1154347,52.8023364 L108.4054961,52.8023364 L108.4054961,55.0851456 L112.810221,55.0851456 L112.810221,55.0851456 zM100.6125403,56.5791505 L98.9126756,56.5791505 L98.9126756,53.4933836 L95.7237233,47.8154079 L97.585145,47.8154079 L99.7568588,52.0362433 L101.9656322,47.8154079 L103.8142319,47.8154079 L100.6125403,53.5174937 L100.6125403,56.5791505 L100.6125403,56.5791505 zM87.18692680000001,47.8154079 L93.1925803,47.8154079 L93.1925803,49.3087545 L88.8995307,49.3087545 L88.8995307,51.4195014 L92.6095521,51.4195014 L92.6095521,52.8023364 L88.8995307,52.8023364 L88.8995307,55.0851456 L93.3042556,55.0851456 L93.3042556,56.5791505 L87.18692680000001,56.5791505 L87.18692680000001,47.8154079 L87.18692680000001,47.8154079 zM82.89395999999999,56.0849341 C82.5964071,56.2912279 82.2490554,56.4412373 81.8518219,56.5356206 C81.4546712,56.6300862 81.0406451,56.6775659 80.6111499,56.6775659 C79.9487081,56.6775659 79.29569670000001,56.5791505 78.6501303,56.3809209 C78.0052257,56.1840901 77.4262509,55.9041493 76.91328870000001,55.5418391 L77.6699514,54.0733432 C77.74464979999999,54.1469902 77.8786603,54.244089 78.0732236,54.3632407 C78.2677869,54.4824748 78.4973418,54.6023671 78.7618884,54.7215188 C79.0264349,54.8407529 79.3205961,54.9412254 79.6431312,55.0235948 C79.96558350000001,55.1059642 80.2968044,55.147437 80.6360493,55.147437 C81.5785068,55.147437 82.0504386,54.8467598 82.0504386,54.2460639 C82.0504386,54.0485748 81.99658629999999,53.8844943 81.88888159999999,53.7518474 C81.78117689999999,53.6205995 81.6283884,53.5054798 81.4297717,53.4063238 C81.231155,53.3079084 80.9915079,53.2174749 80.71008599999999,53.1351055 C80.4287468,53.0527361 80.1143185,52.967075200000004 79.7669668,52.8759834 C79.3455783,52.7607814 78.9792831,52.6348821 78.668991,52.4996021 C78.3586162,52.3636638 78.10010840000001,52.2050142 77.89346760000001,52.0241471 C77.6867441,51.8433623 77.5313085,51.6290867 77.4282362,51.3826367 C77.324585,51.1355285 77.2728007,50.8435738 77.2728007,50.5060321 C77.2728007,50.0620931 77.3556059,49.6670326 77.52121629999999,49.3214267 C77.6867441,48.9759031 77.9163817,48.6879805 78.20988109999999,48.4569183 C78.5033806,48.2272549 78.8446936,48.0518188 79.2338202,47.9325847 C79.62220239999999,47.813433 80.0402819,47.7531165 80.48665249999999,47.7531165 C81.1073194,47.7531165 81.6781874,47.8502153 82.1992564,48.0437546 C82.7202427,48.2366356 83.17538189999999,48.4656407 83.56376399999999,48.7281366 L82.8071013,50.1109716 C82.74919560000001,50.0540289 82.64355900000001,49.9750333 82.4906878,49.8766179 C82.3378993,49.778120200000004 82.1514428,49.6810214 81.9326418,49.5866381 C81.713179,49.4915142 81.4755173,49.4118603 81.2190775,49.3455368 C80.96255500000001,49.279954000000004 80.70206189999999,49.2471215 80.4374326,49.2471215 C79.96558350000001,49.2471215 79.61417829999999,49.3335229 79.3825553,49.5062436 C79.151015,49.6790465 79.0352035,49.9214644 79.0352035,50.234896 C79.0352035,50.4156808 79.0783019,50.5656902 79.16516060000001,50.684842 C79.2519365,50.804076 79.3785019,50.9092389 79.5441123,50.9995902 C79.70906099999999,51.090682 79.9177699,51.1723931 80.1702389,51.2466984 C80.42262529999999,51.3210037 80.7141394,51.3986827 81.0453603,51.4810521 C81.4755173,51.5969124 81.8659675,51.7201785 82.2181171,51.8514264 C82.5695223,51.9826744 82.8670751,52.1474132 83.1114374,52.3456429 C83.3551379,52.5424737 83.54357970000001,52.7795428 83.6755221,53.0547933 C83.808209,53.330702 83.87413889999999,53.6702186 83.87413889999999,54.0733432 C83.87413889999999,54.5420506 83.7852949,54.9438586 83.6075242,55.27671 C83.4298363,55.6094791 83.1921746,55.8793809 82.89395999999999,56.0849341 L82.89395999999999,56.0849341 zM68.2525739,47.8154079 L69.96517779999999,47.8154079 L69.96517779999999,55.0851456 L74.4567613,55.0851456 L74.4567613,56.5791505 L68.2525739,56.5791505 L68.2525739,47.8154079 L68.2525739,47.8154079 zM58.9342152,47.8154079 L60.6468191,47.8154079 L60.6468191,55.0851456 L65.1384027,55.0851456 L65.1384027,56.5791505 L58.9342152,56.5791505 L58.9342152,47.8154079 L58.9342152,47.8154079 zM54.312012800000005,55.3563639 C54.0017207,55.7515067 53.6025019,56.064856 53.1144392,56.29526 C52.6263765,56.5255816 52.0433483,56.6407836 51.3654374,56.6407836 C50.6619653,56.6407836 50.0641298,56.5189163 49.5720136,56.2764985 C49.0798975,56.0340806 48.6807614,55.7126672 48.37444,55.3134924 C48.0687803,54.9143998 47.8473322,54.4516994 47.710674600000004,53.9246504 C47.5746789,53.398342 47.5060192,52.8512149 47.5060192,52.2833515 L47.5060192,47.8154079 L49.2186231,47.8154079 L49.2186231,52.2833515 C49.2186231,52.6536436 49.2536147,53.0099468 49.3243424,53.3514383 C49.394325699999996,53.6929299 49.5141079,53.9950059 49.6837717,54.2581601 C49.8534356,54.5219726 50.0748837,54.733615 50.347537,54.8943218 C50.6208522,55.0543702 50.9554647,55.1346825 51.3526154,55.1346825 C51.7578729,55.1346825 52.099186,55.0523953 52.3765545,54.8876565 C52.6532613,54.722917699999996 52.8767775,54.5099587 53.0464413,54.2460639 C53.2160224,53.9822514 53.335887299999996,53.6802576 53.406532299999995,53.3386838 C53.4765983,52.9978506 53.511589900000004,52.6455794 53.511589900000004,52.2833515 L53.511589900000004,47.8154079 L55.211454599999996,47.8154079 L55.211454599999996,52.2833515 C55.211454599999996,52.8840475 55.1394033,53.4478788 54.9946389,53.9741872 C54.8498745,54.5012362 54.622387599999996,54.9619618 54.312012800000005,55.3563639 L54.312012800000005,55.3563639 zM44.29216736,54.3197931 C44.29216736,54.6907434 44.21746894,55.0155307 44.06865116,55.2947309 C43.91991611,55.5746717 43.71526064,55.8090254 43.45468477,55.9986149 C43.19419162,56.1881221 42.89192361,56.3320423 42.54854251,56.43054 C42.20524414,56.5296137 41.83969341,56.5791505 41.45056678,56.5791505 L37.194659623,56.5791505 L37.194659623,47.8154079 L41.90967665,47.8154079 C42.215998060000004,47.8154079 42.49270482,47.8817313 42.74112049,48.0129793 C42.98953616,48.1442272 43.20023036,48.3156313 43.37394761,48.5245583 C43.54758214,48.7348019 43.68225437,48.9732699 43.77713707,49.2411145 C43.8721025,49.5083008 43.91991611,49.778120200000004 43.91991611,50.0493386 C43.91991611,50.4773139 43.81212869,50.8783813 43.59738108,51.252705399999996 C43.38197169,51.6277701 43.0676262,51.9049954 42.65426187,52.0857802 C43.1584555,52.234473 43.55767428,52.4996021 43.85191821,52.8819903 C44.14541764,53.2643785 44.29216736,53.7438656 44.29216736,54.3197931 L44.29216736,54.3197931 zM41.95343685,49.5678766 C41.76698034,49.3703053 41.537425400000004,49.2718899 41.26477204,49.2718899 L38.90726353,49.2718899 L38.90726353,51.4810521 L41.19007362,51.4810521 C41.47951965,51.4810521 41.72594998,51.3826367 41.92853738,51.1844071 C42.1312075,50.9875763 42.23212895,50.7156996 42.23212895,50.3700938 C42.23212895,50.0326343 42.13923158,49.765448 41.95343685,49.5678766 L41.95343685,49.5678766 zM42.48666608,53.5483514 C42.43281373,53.4050072 42.36076244,53.2791079 42.269850410000004,53.1719701 C42.178276600000004,53.0648323 42.07123369,52.9804057 41.94673633,52.9188549 C41.82290075,52.8572219 41.68624318,52.8264465 41.537425400000004,52.8264465 L38.90726353,52.8264465 L38.90726353,55.1346825 L41.45056678,55.1346825 C41.60740863,55.1346825 41.75490285,55.1059642 41.89089864,55.0483633 C42.02755621,54.9907623 42.14535305,54.9103678 42.24495094,54.807262 C42.34388705,54.7048145 42.42272159,54.5836056 42.48054462,54.4436352 C42.53845037,54.3036648 42.56740324,54.1557126 42.56740324,53.9989556 C42.56740324,53.8429393 42.54051843,53.6929299 42.48666608,53.5483514 L42.48666608,53.5483514 z" id="Shape" sketch:type="MSShapeGroup" fill="#dadada" fill-opacity="1"/>
                <path d="M74.7930283,39.3394233 C64.7876593,39.3394233 56.6768836,31.2711714 56.6768836,21.3186268 C56.6768836,11.36599986 64.7876593,3.29783024 74.7930283,3.29783024 C84.7983973,3.29783024 92.90917300000001,11.36599986 92.90917300000001,21.3186268 C92.90917300000001,31.2711714 84.7983973,39.3394233 74.7930283,39.3394233 L74.7930283,39.3394233 zM74.7930283,10.162879910000001 C68.5993466,10.162879910000001 63.5782563,15.1574611 63.5782563,21.3186268 C63.5782563,27.4797102 68.5993466,32.474291300000004 74.7930283,32.474291300000004 C80.9867927,32.474291300000004 86.0078003,27.4797102 86.0078003,21.3186268 C86.0078003,15.1574611 80.9867927,10.162879910000001 74.7930283,10.162879910000001 L74.7930283,10.162879910000001 zM74.7930283,23.8929793 C73.3636662,23.8929793 72.2050549,22.7404659 72.2050549,21.3186268 C72.2050549,19.8967877 73.3636662,18.744191999999998 74.7930283,18.744191999999998 C76.2223904,18.744191999999998 77.38108439999999,19.8967877 77.38108439999999,21.3186268 C77.38108439999999,22.7404659 76.2223904,23.8929793 74.7930283,23.8929793 L74.7930283,23.8929793 z" id="Shape" sketch:type="MSShapeGroup" fill="#dadada" fill-opacity="1"/>
            </g>
        </g>
    </g></g></svg>