<svg style="position: absolute; width: 0; height: 0; overflow: hidden;" version="1.1" xmlns="http://www.w3.org/2000/svg" xmlns:xlink="http://www.w3.org/1999/xlink">
 <defs>

  <symbol id="icon-znb_close-thin" viewBox="0 0 100 100">
   <path d="m87.801 12.801c-1-1-2.6016-1-3.5 0l-33.801 33.699-34.699-34.801c-1-1-2.6016-1-3.5 0-1 1-1 2.6016 0 3.5l34.699 34.801-34.801 34.801c-1 1-1 2.6016 0 3.5 0.5 0.5 1.1016 0.69922 1.8008 0.69922s1.3008-0.19922 1.8008-0.69922l34.801-34.801 33.699 33.699c0.5 0.5 1.1016 0.69922 1.8008 0.69922 0.69922 0 1.3008-0.19922 1.8008-0.69922 1-1 1-2.6016 0-3.5l-33.801-33.699 33.699-33.699c0.89844-1 0.89844-2.6016 0-3.5z"/>
  </symbol>


  <symbol id="icon-znb_play" viewBox="0 0 22 28">
   <path d="M21.625 14.484l-20.75 11.531c-0.484 0.266-0.875 0.031-0.875-0.516v-23c0-0.547 0.391-0.781 0.875-0.516l20.75 11.531c0.484 0.266 0.484 0.703 0 0.969z"></path>
  </symbol>

 </defs>
</svg>
